<?xml version="1.0" encoding="iso-8859-1"?>
<!-- Generator: Adobe Illustrator 19.0.0, SVG Export Plug-In . SVG Version: 6.00 Build 0)  -->
<svg version="1.1" id="Layer_1" xmlns="http://www.w3.org/2000/svg" xmlns:xlink="http://www.w3.org/1999/xlink" x="0px" y="0px"
	 viewBox="0 0 512 512" style="enable-background:new 0 0 512 512;" xml:space="preserve">
<g>
	<g>
		<path d="M504.491,57.259L454.741,7.509C449.945,2.707,443.438,0.006,436.651,0H25.6C11.461,0,0,11.461,0,25.6v460.8
			C0,500.539,11.461,512,25.6,512h460.8c14.138,0,25.6-11.461,25.6-25.6V75.349C511.994,68.562,509.293,62.055,504.491,57.259z
			 M358.4,17.067h51.2v179.2c0,4.523-2.901,8.533-6.229,8.533H358.4V17.067z M102.4,17.067h238.933V204.8H108.629
			c-3.328,0-6.229-4.011-6.229-8.533V17.067z M418.133,494.933H102.4V486.4c0-4.713,3.82-8.533,8.533-8.533H409.6
			c4.713,0,8.533,3.82,8.533,8.533V494.933z M494.933,486.4c0,4.713-3.82,8.533-8.533,8.533h-51.2V486.4
			c0-14.138-11.461-25.6-25.6-25.6H110.933c-14.138,0-25.6,11.461-25.6,25.6v8.533H25.6c-4.713,0-8.533-3.82-8.533-8.533V25.6
			c0-4.713,3.82-8.533,8.533-8.533h59.733v179.2c-0.58,13.482,9.819,24.91,23.296,25.6h294.741
			c13.477-0.69,23.876-12.118,23.296-25.6v-179.2h9.984c2.268-0.013,4.448,0.877,6.059,2.475l49.749,49.749
			c1.597,1.61,2.488,3.791,2.475,6.059V486.4z"/>
	</g>
</g>
<g>
</g>
<g>
</g>
<g>
</g>
<g>
</g>
<g>
</g>
<g>
</g>
<g>
</g>
<g>
</g>
<g>
</g>
<g>
</g>
<g>
</g>
<g>
</g>
<g>
</g>
<g>
</g>
<g>
</g>
</svg>
